<svg xmlns="http://www.w3.org/2000/svg" viewBox="0 0 100 100">
  <defs>
    <style>
      .cls-1 {
        fill: none;
        stroke: #000;
        stroke-linecap: round;
        stroke-linejoin: round;
        stroke-width: 8px;
      }
    </style>
  </defs>
  <g id="Layer_2" data-name="Layer 2">
    <g id="Layer_1-2" data-name="Layer 1">
      <circle class="cls-1" cx="50" cy="50" r="46" />
      <path
        d="M50,4A46,46,0,1,0,96,50,46,46,0,0,0,50,4ZM67,54.63l-14,16a4,4,0,0,1-5.65.35,3.85,3.85,0,0,1-.35-.35l-14-16A4,4,0,0,1,38.69,49a3.65,3.65,0,0,1,.31.36l7,8V32a4,4,0,0,1,8,0V57.35l7-8a4,4,0,1,1,6.31,4.91,2.67,2.67,0,0,1-.31.36Z" />
    </g>
  </g>
</svg>